<svg width="32" height="32" viewBox="0 0 32 32" fill="none" xmlns="http://www.w3.org/2000/svg">
<rect width="32" height="32" rx="4" fill="white"/>
<path d="M11.2676 4.23853L15.4548 16.9499L15.4566 16.9492L15.5094 17.103C15.7101 17.0202 15.9276 16.97 16.1577 16.9666C16.4041 16.9625 16.642 17.0112 16.8617 17.1008L16.9122 16.9607L16.9204 16.9637L20.9585 4.23853H20.7106L16.7546 16.6912L19.2201 4.23853H18.9796L16.5654 16.3983L17.7214 4.23853H17.4839L16.3041 16.7425C16.287 16.7414 16.2707 16.7388 16.2536 16.738L16.2788 16.7377L16.3532 4.23853H16.1157L16.0417 16.7414H16.0476C16.0372 16.7421 16.0272 16.744 16.0168 16.7447L14.9824 4.23853H14.7441L15.7536 16.5146L13.1056 4.23853H12.8637L15.4429 16.1961L11.517 4.23853H11.2676V4.23853Z" fill="#C7C6C7"/>
<path d="M17.4477 28.9115V21.3846H14.7793V28.9115L16.1133 27.5384L17.4477 28.9115Z" fill="#49AFD0"/>
<path d="M24.7428 3.40015L21.5677 4.23871L16.8248 17.0887H15.5179L10.7947 4.1703L7.59961 3.40015L13.7222 20.0385L18.6822 20.0434L24.7428 3.40015Z" fill="#626062"/>
</svg>