<svg xmlns="http://www.w3.org/2000/svg" viewBox="0 0 127.15 127.15"><defs><style>.cls-1{fill:#4d4d4d;}</style></defs><g id="图层_2" data-name="图层 2"><g id="图层_1-2" data-name="图层 1"><path class="cls-1" d="M16,105.66v-8.8a57.42,57.42,0,0,1-3.37,4.68C13.64,103,14.77,104.33,16,105.66ZM116.89,80.55V98.19a63.56,63.56,0,0,0-10.54-81.65H98.18q-2.27,4.46-4,7.26a14.44,14.44,0,0,0,2.59,1.47c.8.32,1.19.75,1.19,1.28s-.59,1-1.77,1.52V53.75c0,1.91,0,3.28.07,4.09l.06,2.2c0,.73-.71,1.4-2.11,2a9.09,9.09,0,0,1-2.89.91c-.33,0-.49-.24-.49-.73l.12-3.41c0-1.39.06-3,.06-4.7V28.8a68.31,68.31,0,0,1-24.1,21.6l-.61-1A84.35,84.35,0,0,0,81.56,33.71,62.36,62.36,0,0,0,91.1,16.54H70.85a9.56,9.56,0,0,0-2.62.31l-1.16-2.63a12.9,12.9,0,0,0,3.05.31H104a63.59,63.59,0,0,0-80.79-.1A70.37,70.37,0,0,0,33.47,8.36a35.6,35.6,0,0,1,2.76,3.15,6.32,6.32,0,0,1,1.44,2.34q0,.51-.45.51A5.83,5.83,0,0,1,36,14.18,6.79,6.79,0,0,0,34.46,14a4.62,4.62,0,0,0-1.47.24A86.47,86.47,0,0,1,20.57,17l-.18,8.4h8.88l1.5-2.1q.3-.36.54-.36a19.05,19.05,0,0,1,2.88,1.56q2.64,1.56,2.64,2t-2.16,1.71v9.36l.12,3.48a1.08,1.08,0,0,1-.15.63,4.19,4.19,0,0,1-1.11.72,20.6,20.6,0,0,1-2.1,1,6,6,0,0,1-1.41.45q-.27,0-.27-.72V41.36h-9.9a29,29,0,0,1-2.61,10.89A48.34,48.34,0,0,1,10.13,62.6L9.41,62a50.35,50.35,0,0,0,4.8-11.94q1.38-5.64,1.38-17c0-3.88-.06-7.56-.16-11a63.5,63.5,0,0,0-4,77.88,56.9,56.9,0,0,0,6.23-24.29h-5a6.1,6.1,0,0,0-2.52.42L9.05,73.64a13.1,13.1,0,0,0,3,.3H25.91l2.28-3.72a.84.84,0,0,1,.69-.48q.39,0,1.74,1.2l2.61,2.31q1.26,1.11,1.26,1.77t-1.08.66H23.15a59.19,59.19,0,0,1-3.24,13.5h5.52l1-1.68a.86.86,0,0,1,.72-.48,9.64,9.64,0,0,1,2.64,1.47Q32,90,32,90.38t-1.32,1.38v15.3q0,2.52.06,3.54l.06,1.92q0,1.14-1.68,1.8a7.83,7.83,0,0,1-2.34.66q-.66,0-.78-.18a1.45,1.45,0,0,1-.12-.72V111.2H21.48A64.25,64.25,0,0,0,30.77,118a28.49,28.49,0,0,0,5.43-7.62q2.61-5.7,2.79-16.74H35a6.49,6.49,0,0,0-2.28.36l-1-2.34a13.83,13.83,0,0,0,2.7.24H39q.06-2.76.06-7.71t-.3-10h-1.2a6.69,6.69,0,0,0-2.34.36l-1-2.46a13.83,13.83,0,0,0,2.7.24H54.17l2-3.54q.48-.72.9-.72a2.61,2.61,0,0,1,1.26.6,24.07,24.07,0,0,1,2.25,1.92Q62,71.9,62.54,72.47a1.62,1.62,0,0,1,.51,1q0,.72-1,.72h-6.9V91.94h1.68l2.22-3.42a1,1,0,0,1,.87-.6q.51,0,2.88,2.31t2.37,2.88q0,.57-1.74.57H55.19v20.7l.12,5a1.77,1.77,0,0,1-.3,1.14,5.27,5.27,0,0,1-1.83.93,7.72,7.72,0,0,1-2.61.57q-.48,0-.48-.9V93.68H43.91q-.3,13-4.08,18.63a27.55,27.55,0,0,1-7,6.91,63.53,63.53,0,0,0,65.31-2.3c0-.42,0-.84,0-1.27V78.87q0-2.52-.18-5.1a38.67,38.67,0,0,1,6,3.48h6.84L112.69,75a1.12,1.12,0,0,1,.75-.48,3.47,3.47,0,0,1,1.32.63q1,.63,2.31,1.62t1.71,1.35q.39.36.39.6Q119.17,79.41,116.89,80.55ZM63.71,30.86H56.09V54.44q0,2.94.06,4.08l.06,2.16a1,1,0,0,1-.48.87,12.26,12.26,0,0,1-2.16,1,8.39,8.39,0,0,1-2.22.63q-.54,0-.54-.66V30.86h-7Q43,47,40,52.79T28.31,63.92l-.78-1a39.69,39.69,0,0,0,7.74-10,35.29,35.29,0,0,0,3.06-12,135.7,135.7,0,0,0,.78-14.19q0-6.78-.36-13A58,58,0,0,1,44,16.46q5-1.38,14.58-8.1,4.32,5.1,4.32,5.64t-1,.39a11.05,11.05,0,0,0-1.56-.15,6.32,6.32,0,0,0-1.71.36,82.36,82.36,0,0,1-14.28,3.12Q44.27,23.3,44,29H56l2.46-3.36q.54-.78,1-.78t2.91,2.58q2.43,2.58,2.43,3.12Q64.79,30.86,63.71,30.86ZM96.37,96.93H86q-.42,3.18-.84,4.92A61.58,61.58,0,0,1,94,109a7.22,7.22,0,0,1,2.22,4.8,5.79,5.79,0,0,1-1,3.69q-1,1.32-1.83,1.32-1.38,0-1.92-2a32.24,32.24,0,0,0-6.66-13.26,23.49,23.49,0,0,1-5,9.48q-3.54,4.08-11.82,9.3L67,121q7.86-6.3,10.68-11.43a33.93,33.93,0,0,0,3.66-12.63H71.65a9.73,9.73,0,0,0-2.58.3l-1-2.76a13.1,13.1,0,0,0,3,.3h10.5Q82,90,82,81.93H77.71a71.91,71.91,0,0,1-8.16,11.94l-1.14-1q6-10.08,8.88-25,2.46,1,4.53,1.92A15.4,15.4,0,0,1,84.19,71a.92.92,0,0,1,.3.72q0,.45-1.2.69t-1.92,2q-.72,1.74-2.64,5.58H88l2.4-3a1.23,1.23,0,0,1,1-.54q.57,0,3.06,2.19T97,81.39q0,.54-1.2.54H86.83a115.4,115.4,0,0,1-.66,12.84h3.12L91.45,92a1.45,1.45,0,0,1,1.08-.72q.54,0,2.7,2.22t2.16,2.85Q97.39,96.93,96.37,96.93ZM117.88,47.5Q117,49.12,116,49.12a2,2,0,0,1-1.56-.58,14.32,14.32,0,0,1-1.55-2.78q-4-8.84-13.6-15.37l.67-1.1a125,125,0,0,1,12.56,6c2.65,1.52,4.34,2.86,5.1,4a7.45,7.45,0,0,1,1.12,4.18A8.7,8.7,0,0,1,117.88,47.5ZM29.75,27.08H20.33q-.12,5.64-.42,12.6h9.84Zm-3.9,64H20.63v18.42h5.22Zm24.24.84V74.18h-6q.12,9.6-.18,17.76ZM103,113.46l.33-.27H103Zm0-2.43h2.89a64,64,0,0,0,6-6.11V79.41H103Z"/></g></g></svg>